<?xml version="1.0" encoding="utf-8"?>
<!-- Generator: Adobe Illustrator 16.0.4, SVG Export Plug-In . SVG Version: 6.00 Build 0)  -->
<!DOCTYPE svg PUBLIC "-//W3C//DTD SVG 1.1//EN" "http://www.w3.org/Graphics/SVG/1.1/DTD/svg11.dtd">
<svg version="1.1" id="レイヤー_1" xmlns="http://www.w3.org/2000/svg" xmlns:xlink="http://www.w3.org/1999/xlink" x="0px"
	 y="0px" width="15000px" height="5000px" viewBox="0 0 15000 5000" enable-background="new 0 0 15000 5000" xml:space="preserve">
<g>
	<path fill="none" stroke="#000000" stroke-width="2.9734" d="M7616.098,2172.164c0-16.646-13.5-30.139-30.149-30.139h-171.021
		c-16.649,0-30.151,13.492-30.151,30.139v104.062l-0.331-0.497c0,0-40.199,47.704-26.923,64.962
		c5.43,7.057,18.396-8.006,27.254-10.238v64.748c0,0.219,0.028,0.429,0.034,0.645c-0.087,0.736-0.145,1.486-0.145,2.244v47.98
		c0,10.586,8.585,19.17,19.17,19.17h45.651c10.587,0,19.17-8.584,19.17-19.17v-12.629c0,0-0.329-7.91,7.906-7.91h47.636
		c8.239,0,7.91,7.91,7.91,7.91v12.629c0,10.586,8.583,19.17,19.17,19.17h45.646c10.591,0,19.174-8.584,19.174-19.17v-47.98
		c0-0.488-0.038-0.967-0.073-1.447c0.023-0.479,0.073-0.953,0.073-1.441v-64.646c8.847,2.511,21.562,17.105,26.924,10.137
		c13.271-17.258-26.924-64.962-26.924-64.962V2172.164z"/>
	<circle fill="none" stroke="#000000" stroke-width="2.9734" cx="7500.27" cy="2287.046" r="71.207"/>
	<path fill="none" stroke="#000000" stroke-width="2.9734" d="M7553.673,2287.046c0,29.493-23.905,53.403-53.405,53.403
		c-29.498,0-53.405-23.91-53.405-53.403c0-29.496,23.907-53.406,53.405-53.406
		C7529.768,2233.64,7553.673,2257.551,7553.673,2287.046z"/>
	<path fill="none" stroke="#000000" stroke-width="2.9734" d="M7500.934,2260.807c1.434,2.801,2.261,5.966,2.261,9.33
		c0,11.313-9.172,20.484-20.485,20.484c-3.085,0-6-0.702-8.625-1.925c0.852,13.736,12.232,24.62,26.183,24.62
		c14.511,0,26.271-11.761,26.271-26.27C7526.539,2272.76,7515.133,2261.163,7500.934,2260.807z"/>
	<circle fill="none" stroke="#000000" stroke-width="2.9734" cx="7482.712" cy="2270.137" r="20.483"/>
	<path fill="none" stroke="#000000" stroke-width="2.9734" d="M7400.296,2243.427c-0.007-0.216-0.033-55.777-0.033-55.777
		c0-16.647,14.981-30.137,31.633-30.137h29.2c2.509,0,4.541,2.034,4.541,4.547c0,2.509-2.032,4.544-4.541,4.544h-0.128
		l-18.752,2.707c-18.288,2.363-29.004,13.373-30.152,30.14c0,0-3.026,32.005-3.394,43.977c-0.07,2.312-1.874,4.187-4.185,4.187
		C7402.17,2247.614,7400.296,2245.742,7400.296,2243.427"/>
</g>
</svg>
